<svg xmlns="http://www.w3.org/2000/svg" style="display: none;">
  <!-- Definitions for reuse -->
  <defs>
    <filter id="glow" x="-20%" y="-20%" width="140%" height="140%">
      <feGaussianBlur stdDeviation="2" result="blur" />
      <feComposite in="SourceGraphic" in2="blur" operator="over" />
    </filter>
  </defs>

  <!-- RESOURCES -->
  <symbol id="icon-wood" viewBox="0 0 64 64">
    <!-- Stack of beams -->
    <rect x="12" y="16" width="40" height="8" fill="#A0522D" stroke="#5D4037" stroke-width="2"/>
    <rect x="12" y="28" width="40" height="8" fill="#A0522D" stroke="#5D4037" stroke-width="2"/>
    <rect x="12" y="40" width="40" height="8" fill="#A0522D" stroke="#5D4037" stroke-width="2"/>
    <path d="M12 16 L12 48" stroke="#3E2723" stroke-width="2"/>
    <path d="M52 16 L52 48" stroke="#3E2723" stroke-width="2"/>
  </symbol>

  <symbol id="icon-stone" viewBox="0 0 64 64">
    <!-- Low poly rock -->
    <path d="M32 12 L52 24 L48 48 L24 52 L12 36 L20 16 Z" fill="#9CA3AF" stroke="#4B5563" stroke-width="2" stroke-linejoin="round"/>
    <path d="M32 12 L24 52 M52 24 L24 52 M12 36 L32 12" stroke="#4B5563" stroke-width="1" opacity="0.5"/>
  </symbol>

  <symbol id="icon-water" viewBox="0 0 64 64">
    <!-- Water drop with grid -->
    <path d="M32 8 Q52 32 52 44 A20 20 0 0 1 12 44 Q12 32 32 8 Z" fill="#3B82F6" stroke="#1D4ED8" stroke-width="2"/>
    <path d="M32 8 L32 64 M12 44 L52 44" stroke="#60A5FA" stroke-width="1" opacity="0.3"/>
  </symbol>

  <symbol id="icon-scrap" viewBox="0 0 64 64">
    <!-- Gear fragment -->
    <path d="M32 12 L36 4 L44 8 L46 16 L54 18 L58 26 L52 32 L58 38 L54 46 L46 48 L44 56 L36 60 L32 52 L28 60 L20 56 L18 48 L10 46 L6 38 L12 32 L6 26 L10 18 L18 16 L20 8 L28 4 Z" fill="#64748B" stroke="#334155" stroke-width="2"/>
    <circle cx="32" cy="32" r="10" fill="#1E293B"/>
  </symbol>

  <symbol id="icon-charcoal" viewBox="0 0 64 64">
     <!-- Dark crystal/rock -->
     <path d="M32 16 L48 24 L40 48 L24 44 L16 28 Z" fill="#1F2937" stroke="#000000" stroke-width="2"/>
     <path d="M32 16 L40 48 M16 28 L40 48" stroke="#374151" stroke-width="1"/>
  </symbol>

  <symbol id="icon-biomass" viewBox="0 0 64 64">
    <!-- Biohazard leaf container -->
    <rect x="16" y="12" width="32" height="40" rx="4" fill="#064E3B" stroke="#059669" stroke-width="2"/>
    <path d="M32 20 Q44 20 44 32 Q44 44 32 44 Q20 44 20 32 Q20 20 32 20" fill="#10B981"/>
    <path d="M32 20 L32 44 M20 32 L44 32" stroke="#065F46" stroke-width="1"/>
  </symbol>

  <!-- ITEMS -->
  <symbol id="icon-apple" viewBox="0 0 64 64">
    <!-- Geometric Apple -->
    <path d="M32 16 C40 16 44 24 44 32 C44 44 36 52 32 52 C28 52 20 44 20 32 C20 24 24 16 32 16" fill="#EF4444" stroke="#991B1B" stroke-width="2"/>
    <path d="M32 16 L32 10 M32 10 L38 6" stroke="#166534" stroke-width="2"/>
  </symbol>

  <symbol id="icon-cookedApple" viewBox="0 0 64 64">
    <path d="M32 16 C40 16 44 24 44 32 C44 44 36 52 32 52 C28 52 20 44 20 32 C20 24 24 16 32 16" fill="#B45309" stroke="#78350F" stroke-width="2"/>
    <path d="M24 24 L40 40 M40 24 L24 40" stroke="#78350F" stroke-width="1" opacity="0.5"/>
  </symbol>
  
  <symbol id="icon-peach" viewBox="0 0 64 64">
    <circle cx="32" cy="34" r="14" fill="#FCA5A5" stroke="#B91C1C" stroke-width="2"/>
    <path d="M32 20 L32 14 L38 10" stroke="#166534" stroke-width="2" fill="none"/>
  </symbol>

  <symbol id="icon-ironIngot" viewBox="0 0 64 64">
    <!-- Tech Ingot -->
    <path d="M12 20 L20 12 L52 12 L60 20 L52 52 L44 60 L12 60 L4 52 Z" fill="#475569" stroke="#1E293B" stroke-width="2"/>
    <rect x="20" y="24" width="24" height="24" fill="none" stroke="#94A3B8" stroke-width="1" stroke-dasharray="4 2"/>
  </symbol>

  <symbol id="icon-ironPlates" viewBox="0 0 64 64">
    <!-- Stack of Plates -->
    <path d="M12 44 L52 44 L48 56 L16 56 Z" fill="#475569" stroke="#1E293B" stroke-width="2"/>
    <path d="M12 32 L52 32 L48 44 L16 44 Z" fill="#64748B" stroke="#334155" stroke-width="2"/>
    <path d="M16 20 L48 20 L52 32 L12 32 Z" fill="#94A3B8" stroke="#475569" stroke-width="2"/>
    <!-- Rivets -->
    <circle cx="16" cy="24" r="1" fill="#1E293B"/>
    <circle cx="48" cy="24" r="1" fill="#1E293B"/>
    <circle cx="16" cy="38" r="1" fill="#1E293B"/>
    <circle cx="48" cy="38" r="1" fill="#1E293B"/>
  </symbol>

  <symbol id="icon-components" viewBox="0 0 64 64">
    <!-- Circuit Chip -->
    <rect x="12" y="12" width="40" height="40" fill="#065F46" stroke="#047857" stroke-width="2"/>
    <path d="M12 20 L8 20 M12 32 L8 32 M12 44 L8 44 M52 20 L56 20 M52 32 L56 32 M52 44 L56 44 M20 12 L20 8 M32 12 L32 8 M44 12 L44 8 M20 52 L20 56 M32 52 L32 56 M44 52 L44 56" stroke="#F59E0B" stroke-width="2"/>
    <rect x="24" y="24" width="16" height="16" fill="#111827"/>
  </symbol>
  
  <symbol id="icon-appleSeeds" viewBox="0 0 64 64">
    <circle cx="24" cy="32" r="4" fill="#78350F"/>
    <circle cx="32" cy="24" r="4" fill="#78350F"/>
    <circle cx="40" cy="32" r="4" fill="#78350F"/>
  </symbol>

  <symbol id="icon-uranium" viewBox="0 0 64 64">
    <!-- Radioactive crystal -->
    <path d="M32 8 L52 20 L52 44 L32 56 L12 44 L12 20 Z" fill="#10B981" stroke="#047857" stroke-width="2"/>
    <circle cx="32" cy="32" r="12" fill="none" stroke="#FCD34D" stroke-width="2"/>
    <path d="M32 20 L32 44 M20 32 L44 32 M26 26 L38 38 M38 26 L26 38" stroke="#FCD34D" stroke-width="1" opacity="0.5"/>
  </symbol>

  <symbol id="icon-lemon" viewBox="0 0 64 64">
    <!-- Lemon shape -->
    <ellipse cx="32" cy="32" rx="14" ry="18" fill="#FDE047" stroke="#CA8A04" stroke-width="2"/>
    <path d="M32 14 L32 8 L36 6" stroke="#166534" stroke-width="2" fill="none"/>
    <path d="M28 28 Q32 32 28 36" stroke="#CA8A04" stroke-width="1" opacity="0.3"/>
  </symbol>


  <symbol id="icon-mutatedTwigs" viewBox="0 0 64 64">
    <!-- Glowing twisted branches -->
    <path d="M32 52 L32 32 M32 32 L20 20 M32 32 L44 20 M32 32 L24 44" stroke="#A855F7" stroke-width="3" stroke-linecap="round"/>
    <circle cx="20" cy="20" r="3" fill="#C084FC"/>
    <circle cx="44" cy="20" r="3" fill="#C084FC"/>
    <circle cx="24" cy="44" r="3" fill="#C084FC"/>
    <circle cx="32" cy="52" r="3" fill="#C084FC"/>
  </symbol>

  <!-- TOOLS -->
  <symbol id="icon-stoneAxe" viewBox="0 0 64 64">
    <!-- Modern Axe -->
    <rect x="28" y="12" width="8" height="44" fill="#78350F" stroke="#451A03" stroke-width="2"/>
    <path d="M28 16 L12 16 L8 28 L28 32 Z" fill="#64748B" stroke="#334155" stroke-width="2"/>
  </symbol>

  <symbol id="icon-metalDetector" viewBox="0 0 64 64">
    <!-- Tech Detector -->
    <rect x="30" y="8" width="4" height="40" fill="#374151"/>
    <circle cx="32" cy="52" r="10" fill="none" stroke="#F59E0B" stroke-width="2"/>
    <circle cx="32" cy="52" r="4" fill="#F59E0B"/>
    <rect x="26" y="8" width="12" height="8" fill="#1F2937"/>
  </symbol>
  
  <symbol id="icon-rustyCan" viewBox="0 0 64 64">
    <rect x="20" y="16" width="24" height="32" fill="#78350F" stroke="#451A03" stroke-width="2"/>
    <line x1="20" y1="24" x2="44" y2="24" stroke="#451A03" stroke-width="1"/>
    <line x1="20" y1="40" x2="44" y2="40" stroke="#451A03" stroke-width="1"/>
  </symbol>
  
  <symbol id="icon-junk" viewBox="0 0 64 64">
    <path d="M16 16 L48 48 M48 16 L16 48" stroke="#64748B" stroke-width="4"/>
  </symbol>

  <!-- FISH -->
  <symbol id="icon-fish" viewBox="0 0 64 64">
    <!-- Angular Fish -->
    <path d="M12 32 L24 20 L48 20 L56 32 L48 44 L24 44 Z" fill="#0EA5E9" stroke="#0284C7" stroke-width="2"/>
    <circle cx="44" cy="28" r="2" fill="#FFFFFF"/>
    <path d="M12 32 L4 24 M12 32 L4 40" stroke="#0284C7" stroke-width="2"/>
  </symbol>
  
  <symbol id="icon-mutantMinnow" viewBox="0 0 64 64">
    <use href="#icon-fish" fill="#22C55E" stroke="#15803D"/>
  </symbol>
  
  <symbol id="icon-radPerch" viewBox="0 0 64 64">
    <use href="#icon-fish" fill="#84CC16" stroke="#4D7C0F"/>
  </symbol>
  
  <symbol id="icon-goldenMinnow" viewBox="0 0 64 64">
    <use href="#icon-fish" fill="#EAB308" stroke="#A16207"/>
  </symbol>
  
  <symbol id="icon-glowingAlgae" viewBox="0 0 64 64">
    <path d="M20 44 Q32 20 44 44" fill="none" stroke="#22D3EE" stroke-width="4" stroke-linecap="round"/>
    <circle cx="20" cy="44" r="4" fill="#22D3EE"/>
    <circle cx="44" cy="44" r="4" fill="#22D3EE"/>
    <circle cx="32" cy="28" r="4" fill="#22D3EE"/>
  </symbol>

  <!-- UI ICONS -->
  <symbol id="icon-energy" viewBox="0 0 64 64">
    <!-- Lightning Bolt -->
    <path d="M36 4 L24 32 L36 32 L28 60 L40 32 L28 32 Z" fill="#EAB308" stroke="#A16207" stroke-width="2"/>
  </symbol>

  <symbol id="icon-silver" viewBox="0 0 64 64">
    <!-- Hex Coin -->
    <path d="M32 8 L52 20 L52 44 L32 56 L12 44 L12 20 Z" fill="#94A3B8" stroke="#475569" stroke-width="2"/>
    <text x="32" y="42" font-family="monospace" font-weight="bold" font-size="24" text-anchor="middle" fill="#1E293B">$</text>
  </symbol>

  <symbol id="icon-health" viewBox="0 0 64 64">
    <!-- Medical Cross -->
    <rect x="28" y="12" width="8" height="40" fill="#EF4444"/>
    <rect x="12" y="28" width="40" height="8" fill="#EF4444"/>
    <rect x="28" y="12" width="8" height="40" stroke="#991B1B" stroke-width="1" fill="none"/>
    <rect x="12" y="28" width="40" height="8" stroke="#991B1B" stroke-width="1" fill="none"/>
  </symbol>

  <symbol id="icon-explore" viewBox="0 0 64 64">
    <!-- Radar -->
    <circle cx="32" cy="32" r="24" fill="#1E293B" stroke="#22C55E" stroke-width="2"/>
    <path d="M32 32 L48 16" stroke="#22C55E" stroke-width="2"/>
    <circle cx="32" cy="32" r="4" fill="#22C55E"/>
    <circle cx="44" cy="20" r="2" fill="#EF4444"/>
  </symbol>

  <symbol id="icon-craft" viewBox="0 0 64 64">
    <!-- Wrench -->
    <path d="M48 16 L40 24 L24 40 L20 44 L16 40 L20 36 L36 20 Z" fill="#64748B" stroke="#334155" stroke-width="2"/>
    <path d="M52 12 L48 16 M56 16 L52 20" stroke="#334155" stroke-width="2"/>
  </symbol>

  <symbol id="icon-furnace" viewBox="0 0 64 64">
    <!-- Industrial Furnace -->
    <rect x="16" y="12" width="32" height="40" fill="#1F2937" stroke="#374151" stroke-width="2"/>
    <rect x="24" y="36" width="16" height="12" fill="#F97316"/>
    <path d="M16 12 L24 4 M48 12 L40 4" stroke="#374151" stroke-width="2"/>
  </symbol>

  <symbol id="icon-market" viewBox="0 0 64 64">
    <!-- Scale -->
    <path d="M32 12 L32 52 M12 24 L52 24" stroke="#92400E" stroke-width="2"/>
    <path d="M12 24 L12 40 Q12 48 20 48 L20 24 M52 24 L52 40 Q52 48 44 48 L44 24" fill="#FCD34D" stroke="#B45309" stroke-width="1"/>
  </symbol>

  <symbol id="icon-fishing" viewBox="0 0 64 64">
    <!-- Hook -->
    <path d="M32 12 L32 40 Q32 52 20 52 L16 48" stroke="#94A3B8" stroke-width="3" fill="none"/>
    <path d="M16 48 L12 52" stroke="#94A3B8" stroke-width="3"/>
  </symbol>
  
  <symbol id="icon-pickaxe" viewBox="0 0 64 64">
    <!-- Heavy Pickaxe -->
    <path d="M12 12 L52 12 Q56 12 56 16 L52 24 Q40 20 32 24 Q24 20 12 24 L8 16 Q8 12 12 12 Z" fill="#475569" stroke="#1E293B" stroke-width="2"/>
    <rect x="28" y="24" width="8" height="36" fill="#78350F" stroke="#451A03" stroke-width="2"/>
  </symbol>

  <symbol id="icon-mining" viewBox="0 0 64 64">
    <!-- Mining Drill/Cave -->
    <path d="M8 60 L24 20 L40 60" fill="#1E293B" stroke="#334155" stroke-width="2"/>
    <path d="M24 60 L40 20 L56 60" fill="#334155" stroke="#475569" stroke-width="2"/>
    <circle cx="32" cy="40" r="12" fill="none" stroke="#F59E0B" stroke-width="2" stroke-dasharray="4 4"/>
  </symbol>

  <symbol id="icon-quest" viewBox="0 0 64 64">
    <!-- Scroll -->
    <path d="M16 12 L48 12 Q52 12 52 16 L52 48 Q52 52 48 52 L16 52 Q12 52 12 48 L12 16 Q12 12 16 12 Z" fill="#FDE047" stroke="#B45309" stroke-width="2"/>
    <path d="M20 20 L44 20 M20 28 L44 28 M20 36 L44 36 M20 44 L32 44" stroke="#B45309" stroke-width="2"/>
    <circle cx="40" cy="44" r="4" fill="#EF4444" stroke="#991B1B" stroke-width="1"/>
  </symbol>

  <symbol id="icon-inventory" viewBox="0 0 64 64">
    <!-- Backpack -->
    <path d="M20 16 L44 16 L48 52 L16 52 Z" fill="#78350F" stroke="#451A03" stroke-width="2"/>
    <path d="M20 16 Q32 8 44 16" fill="#78350F" stroke="#451A03" stroke-width="2"/>
    <rect x="26" y="24" width="12" height="16" rx="2" fill="#92400E" stroke="#451A03" stroke-width="1"/>
  </symbol>

  <symbol id="icon-character" viewBox="0 0 64 64">
    <!-- User -->
    <circle cx="32" cy="24" r="10" fill="#3B82F6" stroke="#1D4ED8" stroke-width="2"/>
    <path d="M12 56 Q32 40 52 56" fill="#3B82F6" stroke="#1D4ED8" stroke-width="2"/>
  </symbol>

  <symbol id="icon-base" viewBox="0 0 64 64">
    <!-- Tent/Shelter -->
    <path d="M32 12 L56 52 L8 52 Z" fill="#4B5563" stroke="#1F2937" stroke-width="2"/>
    <path d="M32 12 L32 52" stroke="#1F2937" stroke-width="2"/>
    <rect x="28" y="40" width="8" height="12" fill="#1F2937"/>
  </symbol>

  <symbol id="icon-farming" viewBox="0 0 64 64">
    <!-- Sprout -->
    <path d="M32 52 L32 28" stroke="#166534" stroke-width="3"/>
    <path d="M32 28 Q44 16 52 28 Q44 40 32 28" fill="#22C55E" stroke="#166534" stroke-width="2"/>
    <path d="M32 36 Q20 24 12 36 Q20 48 32 36" fill="#22C55E" stroke="#166534" stroke-width="2"/>
  </symbol>

  <symbol id="icon-factory" viewBox="0 0 64 64">
    <!-- Factory -->
    <path d="M8 52 L8 28 L20 28 L20 40 L32 28 L32 40 L44 28 L44 52 Z" fill="#64748B" stroke="#334155" stroke-width="2"/>
    <rect x="44" y="20" width="12" height="32" fill="#64748B" stroke="#334155" stroke-width="2"/>
    <path d="M48 20 L48 12 Q56 8 60 12" stroke="#94A3B8" stroke-width="2" fill="none"/>
  </symbol>

  <symbol id="icon-biomassCompressor" viewBox="0 0 64 64">
    <!-- Compactor Machine -->
    <rect x="12" y="12" width="40" height="40" fill="#065F46" stroke="#064E3B" stroke-width="2"/>
    <!-- Piston Head -->
    <rect x="16" y="16" width="32" height="12" fill="#10B981" stroke="#059669" stroke-width="2"/>
    <!-- Organic matter at bottom -->
    <rect x="16" y="40" width="32" height="8" fill="#064E3B" opacity="0.8"/>
    <!-- Pressure gauge -->
    <circle cx="52" cy="12" r="6" fill="#FDE047" stroke="#B45309" stroke-width="2"/>
    <path d="M52 12 L56 8" stroke="#B45309" stroke-width="2"/>
    <!-- Down Arrows -->
    <path d="M32 30 L32 38 M28 34 L32 38 L36 34" stroke="#D1FAE5" stroke-width="2" fill="none"/>
  </symbol>

  <symbol id="icon-skills" viewBox="0 0 64 64">
    <!-- Star/Badge -->
    <path d="M32 8 L40 24 L56 24 L44 36 L48 52 L32 44 L16 52 L20 36 L8 24 L24 24 Z" fill="#F59E0B" stroke="#B45309" stroke-width="2"/>
  </symbol>

  <symbol id="icon-tech" viewBox="0 0 64 64">
    <!-- Microchip -->
    <rect x="16" y="16" width="32" height="32" fill="#0EA5E9" stroke="#0369A1" stroke-width="2"/>
    <path d="M16 24 L8 24 M16 32 L8 32 M16 40 L8 40 M48 24 L56 24 M48 32 L56 32 M48 40 L56 40 M24 16 L24 8 M32 16 L32 8 M40 16 L40 8 M24 48 L24 56 M32 48 L32 56 M40 48 L40 56" stroke="#0EA5E9" stroke-width="2"/>
    <circle cx="32" cy="32" r="6" fill="#0369A1"/>
  </symbol>

  <symbol id="icon-default" viewBox="0 0 64 64">
    <rect x="8" y="8" width="48" height="48" rx="8" fill="#374151" stroke="#4B5563" stroke-width="2"/>
    <text x="32" y="42" font-family="monospace" font-size="32" text-anchor="middle" fill="#9CA3AF">?</text>
  </symbol>

  <symbol id="icon-mutatedTwigs" viewBox="0 0 64 64">
    <!-- Glowing mutated branches -->
    <path d="M20 52 L24 32 L20 16" stroke="#10B981" stroke-width="3" fill="none" stroke-linecap="round"/>
    <path d="M32 52 L32 12" stroke="#059669" stroke-width="4" fill="none" stroke-linecap="round"/>
    <path d="M44 52 L40 32 L44 16" stroke="#10B981" stroke-width="3" fill="none" stroke-linecap="round"/>
    <!-- Glowing nodes -->
    <circle cx="24" cy="32" r="3" fill="#34D399" filter="url(#glow)"/>
    <circle cx="32" cy="24" r="3" fill="#34D399" filter="url(#glow)"/>
    <circle cx="40" cy="32" r="3" fill="#34D399" filter="url(#glow)"/>
    <circle cx="20" cy="16" r="2" fill="#6EE7B7"/>
    <circle cx="44" cy="16" r="2" fill="#6EE7B7"/>
    <!-- Small branches -->
    <path d="M24 32 L18 28" stroke="#10B981" stroke-width="2" fill="none"/>
    <path d="M40 32 L46 28" stroke="#10B981" stroke-width="2" fill="none"/>
  </symbol>

  <symbol id="icon-banana" viewBox="0 0 64 64">
    <!-- Banana shape -->
    <path d="M20 16 Q16 24 18 32 Q20 44 28 52 Q36 56 44 52 Q48 48 46 40 Q44 28 40 20 Q36 14 28 12 Q22 12 20 16 Z" 
          fill="#FCD34D" stroke="#F59E0B" stroke-width="2"/>
    <!-- Banana details -->
    <path d="M24 18 Q22 26 24 34 Q26 44 32 50" stroke="#F59E0B" stroke-width="1" fill="none" opacity="0.5"/>
    <path d="M28 16 Q26 24 28 32 Q30 42 36 48" stroke="#F59E0B" stroke-width="1" fill="none" opacity="0.5"/>
    <!-- Brown tip -->
    <ellipse cx="42" cy="18" rx="4" ry="6" fill="#92400E"/>
  </symbol>

  <symbol id="icon-pickaxe" viewBox="0 0 64 64">
    <!-- Pickaxe head -->
    <path d="M44 16 L52 24 L48 28 L40 20 Z" fill="#64748B" stroke="#334155" stroke-width="2"/>
    <path d="M40 20 L32 28 L28 24 L36 16 Z" fill="#64748B" stroke="#334155" stroke-width="2"/>
    <!-- Pick point -->
    <path d="M52 24 L60 28 L56 32 L48 28 Z" fill="#94A3B8" stroke="#334155" stroke-width="2"/>
    <!-- Handle -->
    <rect x="14" y="34" width="6" height="32" rx="3" fill="#8B4513" stroke="#5D2E0F" stroke-width="1.5" 
          transform="rotate(-45 17 50)"/>
    <!-- Metal band on handle -->
    <rect x="26" y="26" width="4" height="6" fill="#475569" stroke="#1E293B" stroke-width="1" 
          transform="rotate(-45 28 29)"/>
  </symbol>

  <!-- GLASS CRAFTING CHAIN -->
  <symbol id="icon-sand" viewBox="0 0 64 64">
    <!-- Sand pile -->
    <ellipse cx="32" cy="48" rx="24" ry="8" fill="#F59E0B" stroke="#B45309" stroke-width="2"/>
    <ellipse cx="32" cy="40" rx="18" ry="6" fill="#FBBF24"/>
    <ellipse cx="32" cy="34" rx="12" ry="4" fill="#FCD34D"/>
    <!-- Sand grains -->
    <circle cx="24" cy="46" r="2" fill="#FDE68A"/>
    <circle cx="36" cy="44" r="2" fill="#FDE68A"/>
    <circle cx="28" cy="38" r="1.5" fill="#FEF3C7"/>
  </symbol>

  <symbol id="icon-glassTube" viewBox="0 0 64 64">
    <!-- Glass tube -->
    <rect x="24" y="8" width="16" height="48" rx="8" fill="#BFDBFE" fill-opacity="0.5" stroke="#3B82F6" stroke-width="2"/>
    <rect x="28" y="12" width="8" height="40" rx="4" fill="#DBEAFE" fill-opacity="0.3"/>
    <!-- Shine -->
    <path d="M28 16 L28 44" stroke="#FFFFFF" stroke-width="1" opacity="0.5"/>
  </symbol>

  <symbol id="icon-glassJar" viewBox="0 0 64 64">
    <!-- Jar body -->
    <path d="M18 24 Q16 24 16 28 L16 52 Q16 56 20 56 L44 56 Q48 56 48 52 L48 28 Q48 24 46 24 Z" fill="#BFDBFE" fill-opacity="0.5" stroke="#3B82F6" stroke-width="2"/>
    <!-- Jar neck -->
    <rect x="22" y="16" width="20" height="8" fill="#BFDBFE" fill-opacity="0.5" stroke="#3B82F6" stroke-width="2"/>
    <!-- Lid -->
    <rect x="20" y="10" width="24" height="6" rx="2" fill="#64748B" stroke="#334155" stroke-width="2"/>
    <!-- Shine -->
    <path d="M22 28 L22 48" stroke="#FFFFFF" stroke-width="2" opacity="0.4"/>
  </symbol>

  <symbol id="icon-pickledPeaches" viewBox="0 0 64 64">
    <!-- Jar body with peach-colored liquid -->
    <path d="M18 24 Q16 24 16 28 L16 52 Q16 56 20 56 L44 56 Q48 56 48 52 L48 28 Q48 24 46 24 Z" fill="#FED7AA" fill-opacity="0.8" stroke="#EA580C" stroke-width="2"/>
    <!-- Peaches inside -->
    <circle cx="28" cy="38" r="6" fill="#FCA5A5" stroke="#DC2626" stroke-width="1"/>
    <circle cx="38" cy="44" r="5" fill="#FCA5A5" stroke="#DC2626" stroke-width="1"/>
    <circle cx="32" cy="50" r="4" fill="#FCA5A5" stroke="#DC2626" stroke-width="1"/>
    <!-- Lid -->
    <rect x="20" y="10" width="24" height="6" rx="2" fill="#64748B" stroke="#334155" stroke-width="2"/>
    <rect x="22" y="16" width="20" height="8" fill="#FED7AA" fill-opacity="0.6" stroke="#EA580C" stroke-width="2"/>
  </symbol>
  
  <symbol id="icon-carrot" viewBox="0 0 64 64">
    <!-- Carrot body -->
    <path d="M32 52 L20 16 Q32 12 44 16 Z" fill="#F97316" stroke="#C2410C" stroke-width="2"/>
    <!-- Carrot tops -->
    <path d="M32 16 L32 6 M32 16 L24 8 M32 16 L40 8" stroke="#10B981" stroke-width="3" fill="none" stroke-linecap="round"/>
    <!-- Carrot lines -->
    <path d="M26 24 H38 M24 32 H40 M28 40 H36" stroke="#C2410C" stroke-width="1" opacity="0.5"/>
  </symbol>

  <symbol id="icon-carrotSeeds" viewBox="0 0 64 64">
    <circle cx="28" cy="28" r="3" fill="#F97316"/>
    <circle cx="36" cy="36" r="3" fill="#F97316"/>
    <circle cx="32" cy="44" r="3" fill="#F97316"/>
  </symbol>

  <symbol id="icon-corn" viewBox="0 0 64 64">
    <!-- Corn husk -->
    <path d="M32 56 Q16 48 20 16 Q32 8 44 16 Q48 48 32 56" fill="#A3E635" stroke="#4D7C0F" stroke-width="2"/>
    <!-- Corn kernels -->
    <path d="M32 48 Q24 40 24 20 Q32 16 40 20 Q40 40 32 48" fill="#FDE047" stroke="#CA8A04" stroke-width="1"/>
    <!-- Kernel grid -->
    <path d="M28 24 H36 M26 32 H38 M28 40 H36 M32 20 V48" stroke="#CA8A04" stroke-width="1" opacity="0.4"/>
  </symbol>

  <symbol id="icon-cornSeeds" viewBox="0 0 64 64">
    <circle cx="24" cy="32" r="4" fill="#FDE047"/>
    <circle cx="32" cy="24" r="4" fill="#FDE047"/>
    <circle cx="40" cy="32" r="4" fill="#FDE047"/>
  </symbol>

  <symbol id="icon-cookedFish" viewBox="0 0 64 64">
    <!-- Plate -->
    <ellipse cx="32" cy="48" rx="24" ry="8" fill="#E2E8F0" stroke="#94A3B8" stroke-width="2"/>
    <!-- Fish body -->
    <path d="M16 36 Q32 24 48 36 L52 32 V40 L48 36 Q32 48 16 36" fill="#94A3B8" stroke="#475569" stroke-width="2"/>
    <!-- Grill marks -->
    <path d="M24 32 L28 40 M32 30 L36 42 M40 32 L44 40" stroke="#444" stroke-width="2" opacity="0.6"/>
  </symbol>

  <symbol id="icon-cornChowder" viewBox="0 0 64 64">
    <!-- Bowl -->
    <path d="M12 28 Q12 52 32 52 Q52 52 52 28 H12" fill="#F1F5F9" stroke="#94A3B8" stroke-width="2"/>
    <!-- Soup -->
    <path d="M14 28 Q32 32 50 28 H14" fill="#FDE047" stroke="#EAB308" stroke-width="1"/>
    <!-- Kernels in soup -->
    <circle cx="24" cy="36" r="3" fill="#EAB308"/>
    <circle cx="34" cy="42" r="2.5" fill="#EAB308"/>
    <circle cx="42" cy="34" r="3" fill="#EAB308"/>
  </symbol>

  <symbol id="icon-vegetableMedley" viewBox="0 0 64 64">
    <!-- Bowl -->
    <path d="M12 28 Q12 52 32 52 Q52 52 52 28 H12" fill="#F1F5F9" stroke="#94A3B8" stroke-width="2"/>
    <!-- Veggies -->
    <circle cx="24" cy="32" r="5" fill="#F97316"/> <!-- Carrot -->
    <circle cx="32" cy="36" r="4" fill="#FDE047"/> <!-- Corn -->
    <circle cx="40" cy="30" r="5" fill="#EF4444"/> <!-- Apple -->
    <path d="M14 28 Q32 34 50 28 H14" fill="#10B981" fill-opacity="0.3"/>
  </symbol>

  <symbol id="icon-fruitSalad" viewBox="0 0 64 64">
    <!-- Bowl -->
    <ellipse cx="32" cy="48" rx="20" ry="10" fill="#F1F5F9" stroke="#94A3B8" stroke-width="2"/>
    <path d="M14 24 Q14 48 32 48 Q50 48 50 24 H14" fill="#F1F5F9" stroke="#94A3B8" stroke-width="2"/>
    <!-- Fruits -->
    <circle cx="22" cy="28" r="6" fill="#EF4444"/> <!-- Apple -->
    <circle cx="32" cy="32" r="6" fill="#FDE047"/> <!-- Banana -->
    <circle cx="42" cy="26" r="6" fill="#FED7AA"/> <!-- Peach -->
  </symbol>

  <symbol id="icon-lemonade" viewBox="0 0 64 64">
    <!-- Glass -->
    <path d="M20 12 L24 52 Q32 56 40 52 L44 12 Z" fill="#F1F5F9" fill-opacity="0.3" stroke="#94A3B8" stroke-width="2"/>
    <!-- Liquid -->
    <path d="M22 28 L24 50 Q32 54 40 50 L42 28 Z" fill="#FDE047" stroke="#EAB308" stroke-width="1"/>
    <!-- Straw -->
    <path d="M36 4 L36 32" stroke="#EF4444" stroke-width="3" stroke-linecap="round"/>
  </symbol>

  <symbol id="icon-kitchen" viewBox="0 0 64 64">
    <!-- Pan body -->
    <circle cx="28" cy="36" r="20" fill="#475569" stroke="#1E293B" stroke-width="2"/>
    <!-- Handle -->
    <rect x="44" y="32" width="16" height="8" rx="2" fill="#475569" stroke="#1E293B" stroke-width="2"/>
    <!-- Steam -->
    <path d="M20 12 Q20 4 24 8 T28 4" stroke="#CBD5E1" stroke-width="2" fill="none"/>
    <path d="M30 14 Q30 6 34 10 T38 6" stroke="#CBD5E1" stroke-width="2" fill="none"/>
  </symbol>

</svg>
